<svg width="56" height="58" viewBox="0 0 56 58" fill="none" xmlns="http://www.w3.org/2000/svg">
<path id="Hp-Logo" d="M27.7169 57.1058C27.4475 57.1058 27.1652 57.1058 26.8957 57.0925L32.5546 41.0543H40.3564C41.7294 41.0543 43.2307 39.9701 43.6927 38.6479L49.8392 21.261C50.8401 18.4182 49.2617 16.0779 46.3232 16.0779H35.5059L26.4338 41.7682L21.2882 56.3389C9.085 53.3507 0 42.0459 0 28.5463C0 15.4433 8.55889 4.40292 20.2359 1.04454L14.9235 16.0779L6.09516 41.0543H11.9722L19.4789 19.833H23.893L16.3864 41.0543H22.2634L29.2568 21.261C30.2577 18.4182 28.6793 16.0779 25.7408 16.0779H20.8005L26.4722 0.0264446C26.8829 0.0132226 27.3063 0 27.7169 0C43.0254 0 55.4339 12.7857 55.4339 28.5595C55.4339 44.3201 43.0254 57.1058 27.7169 57.1058ZM44.4883 19.8198H40.0741L33.8891 37.2992H38.3033L44.4883 19.8198Z" fill="white"/>
</svg>
