<svg width="24" height="24" viewBox="0 0 24 24" fill="none" xmlns="http://www.w3.org/2000/svg">
<g id="Icon">
<g id="Vector">
<path fill-rule="evenodd" clip-rule="evenodd" d="M12.5001 9C12.5001 10.6569 11.157 12 9.50013 12C7.84328 12 6.50013 10.6569 6.50013 9C6.50013 7.34315 7.84328 6 9.50013 6C11.157 6 12.5001 7.34315 12.5001 9ZM13.5001 9C13.5001 11.2091 11.7093 13 9.50013 13C7.29099 13 5.50013 11.2091 5.50013 9C5.50013 6.79086 7.29099 5 9.50013 5C11.7093 5 13.5001 6.79086 13.5001 9ZM3.2694 19.6426C4.06858 16.9573 6.55651 15 9.50029 15C12.4441 15 14.932 16.9573 15.7312 19.6426C15.81 19.9073 16.0884 20.058 16.353 19.9792C16.6177 19.9005 16.7684 19.622 16.6896 19.3574C15.7677 16.2597 12.8986 14 9.50029 14C6.10203 14 3.23286 16.2597 2.31094 19.3574C2.23217 19.622 2.38288 19.9005 2.64755 19.9792C2.91221 20.058 3.19063 19.9073 3.2694 19.6426Z" fill="#212121"/>
<path fill-rule="evenodd" clip-rule="evenodd" d="M19.5001 7C19.5001 8.10457 18.6047 9 17.5001 9C16.3956 9 15.5001 8.10457 15.5001 7C15.5001 5.89543 16.3956 5 17.5001 5C18.6047 5 19.5001 5.89543 19.5001 7ZM20.5001 7C20.5001 8.65685 19.157 10 17.5001 10C15.8433 10 14.5001 8.65685 14.5001 7C14.5001 5.34315 15.8433 4 17.5001 4C19.157 4 20.5001 5.34315 20.5001 7ZM14.1734 13.7781C14.8919 12.7049 16.1138 12 17.5002 12C18.8865 12 20.1085 12.7049 20.8269 13.7781C20.9805 14.0076 21.291 14.0691 21.5205 13.9155C21.75 13.7619 21.8115 13.4513 21.6579 13.2219C20.7618 11.8831 19.2342 11 17.5002 11C15.7661 11 14.2386 11.8831 13.3424 13.2219C13.1888 13.4513 13.2503 13.7619 13.4798 13.9155C13.7093 14.0691 14.0198 14.0076 14.1734 13.7781Z" fill="#212121"/>
</g>
</g>
</svg>
