<svg width="24" height="24" viewBox="0 0 24 24" fill="none" xmlns="http://www.w3.org/2000/svg">
<g id="Icon">
<path id="Vector" fill-rule="evenodd" clip-rule="evenodd" d="M11.5 20.5C11.5 20.7761 11.7239 21 12 21C12.2761 21 12.5 20.7761 12.5 20.5V12.5H20.5C20.7761 12.5 21 12.2761 21 12C21 11.7239 20.7761 11.5 20.5 11.5H12.5V3.5C12.5 3.22386 12.2761 3 12 3C11.7239 3 11.5 3.22386 11.5 3.5V11.5L3.5 11.5C3.22386 11.5 3 11.7239 3 12C3 12.2761 3.22386 12.5 3.5 12.5L11.5 12.5V20.5Z" fill="white" fill-opacity="0.87"/>
</g>
</svg>
